<?xml version="1.0" encoding="UTF-8"?>
<svg id="Layer_1" xmlns="http://www.w3.org/2000/svg" version="1.1" viewBox="0 0 1196.96 1080">
  <!-- Generator: Adobe Illustrator 30.4.0, SVG Export Plug-In . SVG Version: 2.1.4 Build 226)  -->
  <polygon points="773.3 614.08 773.3 614.08 704.48 593.62 773.3 614.08"/>
  <polygon points="763.9 555.13 754 544.39 746.74 552.07 763.9 555.13"/>
  <polygon points="463.21 435.36 378 463.81 441.18 522.42 441.17 522.47 441.21 522.45 441.24 522.47 441.24 522.44 583.53 458.39 463.21 435.36"/>
  <polygon points="574.58 446.99 409.41 312.01 464.23 425.61 574.58 446.99"/>
  <polygon points="446.24 535.67 589.44 683.42 545.34 558.4 446.24 535.67"/>
  <path d="M837.49,599.46l-5.46-13.98-11.14-19.78-13.5-15.18h0s-12.92-14.54-12.92-14.54l-8.58-8.58,3.64-23.56-38.59-69.92,9.77,67.28,19.36,7.6-12.41,6.51-15.12-4.58,1.45,11.74,65.06,62.3,9.5,24.38-71.37-21.65-60.22-2.24,51.94-57.85,5.1-4.93-12.27-99.08-319.13-107.29,226.41,109.52,92.72,97.54-41.18-24.32-71.26-30.34-37.11-14.09-42.28,96.12,33.63,6.62,39.45,9.55,35.8,8.86,25.22,9.21-88.19,104.1,70.92-28.19,57.73-21.82,54.1-23.23,20.01,2.38,19.27.22,16.38,2.33,12.84,3.21-9.56-24.32ZM679.55,547.53l-9.95-.99-7.05-1.36-11.37-6.14-8.07-8.64-5.11-9.66-2.73-6.36-.45-8.86,1.02-8.64,2.16-7.05,23.18,10.23-.45,8.07.45,8.07,1.36,4.32,2.12,3.36,6.64,6.08,5.8,2.5,7.93,1.65,8.67-2.42,3.98-2.19,5.46-6.02,9.52,4.99-4.79,5.85-7.46,5.64-3.86,2.84-6.93,2.73-10.05,2.01ZM773.3,614.08l-68.82-20.46,44.4,21.03-41.79.99-15.36-20.54,12.75-1.48,68.82,20.46h0Z"/>
</svg>