<?xml version="1.0" encoding="UTF-8"?>
<svg id="Layer_1" xmlns="http://www.w3.org/2000/svg" version="1.1" viewBox="0 0 1196.96 1080">
  <!-- Generator: Adobe Illustrator 30.4.0, SVG Export Plug-In . SVG Version: 2.1.4 Build 226)  -->
  <defs>
    <style>
      .st0 {
        font-size: 21.23px;
        letter-spacing: .7em;
      }

      .st0, .st1 {
        fill: #ea725c;
      }

      .st0, .st2 {
        font-family: MontserratAlternates-ExtraBold, 'Montserrat Alternates';
        font-weight: 700;
      }

      .st1 {
        letter-spacing: 0em;
      }

      .st2 {
        font-size: 161.61px;
      }
    </style>
  </defs>
  <text class="st2" transform="translate(356.95 567.87)"><tspan x="0" y="0">Gr</tspan><tspan class="st1" x="196.02" y="0">i</tspan><tspan x="246.6" y="0">nd</tspan></text>
  <text class="st0" transform="translate(488.88 611.08)"><tspan x="0" y="0">SKATE SHOP</tspan></text>
  <path d="M818.94,568.4c-119.39,5.68-358.17,5.68-456.5,0,1.4,9.94,5.62,16.33,14.05,17.04,17.09.86,40.54,1.55,68.05,2.07-2.96,2.6-4.85,6.43-4.85,10.71,0,7.84,6.29,14.2,14.05,14.2s14.05-6.36,14.05-14.2c0-4.11-1.74-7.81-4.51-10.4,95.01,1.42,227.78.98,319.62-1.31-3.68,2.56-6.1,6.84-6.1,11.7,0,7.84,6.29,14.2,14.05,14.2s14.05-6.36,14.05-14.2c0-5.13-2.71-9.62-6.75-12.11,7.26-.21,14.21-.43,20.79-.67,24.58-1.42,43.54-11.36,49.16-45.43-12.64,17.75-28.09,27.69-49.16,28.4ZM453.74,603.18c-2.72,0-4.92-2.22-4.92-4.97s2.2-4.97,4.92-4.97,4.92,2.22,4.92,4.97-2.2,4.97-4.92,4.97ZM790.85,603.18c-2.72,0-4.92-2.22-4.92-4.97s2.2-4.97,4.92-4.97,4.92,2.22,4.92,4.97-2.2,4.97-4.92,4.97Z"/>
</svg>