<?xml version="1.0" encoding="UTF-8"?>
<svg id="Layer_1" xmlns="http://www.w3.org/2000/svg" version="1.1" viewBox="0 0 1196.96 1080">
  <!-- Generator: Adobe Illustrator 30.4.0, SVG Export Plug-In . SVG Version: 2.1.4 Build 226)  -->
  <defs>
    <style>
      .st0 {
        font-size: 21.23px;
        letter-spacing: .7em;
      }

      .st0, .st1 {
        fill: #ea725c;
      }

      .st0, .st2 {
        font-family: MontserratAlternates-ExtraBold, 'Montserrat Alternates';
        font-weight: 700;
      }

      .st1 {
        letter-spacing: 0em;
      }

      .st3 {
        fill: #fff;
      }

      .st2 {
        font-size: 161.61px;
      }
    </style>
  </defs>
  <rect x="2.75" width="1196.96" height="1080"/>
  <g>
    <polygon class="st3" points="761.58 518.27 761.58 518.27 719.13 505.65 761.58 518.27"/>
    <polygon class="st3" points="755.79 481.91 749.68 475.29 745.2 480.02 755.79 481.91"/>
    <polygon class="st3" points="570.32 408.04 517.76 425.58 556.73 461.73 556.72 461.76 556.75 461.75 556.76 461.76 556.77 461.74 644.53 422.24 570.32 408.04"/>
    <polygon class="st3" points="639.01 415.21 537.14 331.95 570.95 402.02 639.01 415.21"/>
    <polygon class="st3" points="559.85 469.91 648.18 561.04 620.98 483.93 559.85 469.91"/>
    <path class="st3" d="M801.18,509.25l-3.36-8.62-6.87-12.2-8.33-9.36h0s-7.97-8.97-7.97-8.97l-5.29-5.29,2.25-14.53-23.8-43.13,6.03,41.5,11.94,4.69-7.66,4.01-9.32-2.83.9,7.24,40.13,38.43,5.86,15.04-44.02-13.36-37.14-1.38,32.03-35.68,3.15-3.04-7.57-61.12-196.84-66.17,139.65,67.56,57.19,60.17-25.4-15-43.95-18.72-22.89-8.69-26.08,59.29,20.74,4.08,24.33,5.89,22.08,5.47,15.55,5.68-54.4,64.21,43.74-17.38,35.61-13.46,33.37-14.33,12.34,1.47,11.89.13,10.1,1.44,7.92,1.98-5.9-15ZM703.76,477.22l-6.14-.61-4.35-.84-7.01-3.79-4.98-5.33-3.15-5.96-1.68-3.93-.28-5.47.63-5.33,1.33-4.35,14.3,6.31-.28,4.98.28,4.98.84,2.66,1.3,2.07,4.09,3.75,3.58,1.54,4.89,1.02,5.35-1.49,2.45-1.35,3.36-3.72,5.87,3.08-2.95,3.61-4.6,3.48-2.38,1.75-4.28,1.68-6.2,1.24ZM761.58,518.27l-42.45-12.62,27.38,12.97-25.78.61-9.47-12.67,7.87-.91,42.45,12.62h0Z"/>
  </g>
  <text class="st2" transform="translate(334.39 663.5)"><tspan class="st3" x="0" y="0">Gr</tspan><tspan class="st1" x="196.02" y="0">i</tspan><tspan class="st3" x="246.6" y="0">nd</tspan></text>
  <text class="st0" transform="translate(466.32 707.71)"><tspan x="0" y="0">SKATE SHOP</tspan></text>
  <path class="st3" d="M796.38,664.03c-119.39,5.68-358.17,5.68-456.5,0,1.4,9.94,5.62,16.33,14.05,17.04,17.09.86,40.54,1.55,68.05,2.07-2.96,2.6-4.85,6.43-4.85,10.71,0,7.84,6.29,14.2,14.05,14.2s14.05-6.36,14.05-14.2c0-4.11-1.74-7.81-4.51-10.4,95.01,1.42,227.78.98,319.62-1.31-3.68,2.56-6.1,6.84-6.1,11.7,0,7.84,6.29,14.2,14.05,14.2s14.05-6.36,14.05-14.2c0-5.13-2.71-9.62-6.75-12.11,7.26-.21,14.21-.43,20.79-.67,24.58-1.42,43.54-11.36,49.16-45.43-12.64,17.75-28.09,27.69-49.16,28.4ZM431.18,698.82c-2.72,0-4.92-2.22-4.92-4.97s2.2-4.97,4.92-4.97,4.92,2.22,4.92,4.97-2.2,4.97-4.92,4.97ZM768.29,698.82c-2.72,0-4.92-2.22-4.92-4.97s2.2-4.97,4.92-4.97,4.92,2.22,4.92,4.97-2.2,4.97-4.92,4.97Z"/>
</svg>